<?xml version="1.0" encoding="UTF-8"?><svg id="Layer_1" xmlns="http://www.w3.org/2000/svg" viewBox="0 0 17 17"><defs><style>.cls-1{fill:#fff;}.cls-2{fill:#477be4;}</style></defs><rect class="cls-2" width="17" height="17"/><path class="cls-1" d="M9.98,3.52s.07.02.11.02c1.74.02,3.09.59,3.32,2.5.02.14,0,.28.04.42-.05,1.32.06,2.68,0,4-.08,1.7-.93,2.82-2.69,2.97-1.2.11-2.61.06-3.82.02-1.01-.03-1.9-.08-2.64-.87-.66-.71-.71-1.5-.75-2.42-.04-1.09-.04-2.19,0-3.28.03-.87.06-1.63.64-2.33.73-.88,1.74-.99,2.81-1.02h2.97ZM6.75,4.43c-1.62.06-2.24.61-2.3,2.26-.05,1.21-.04,2.5.02,3.71.08,1.47.62,2.05,2.1,2.15,1.1.07,2.34.04,3.45,0,.78-.03,1.51,0,2.07-.65.48-.56.44-1.27.46-1.96.03-1.08.06-2.26,0-3.34-.09-1.64-.77-2.11-2.36-2.17-1.1-.04-2.35-.04-3.45,0Z"/><path class="cls-1" d="M8.21,5.95c2.55-.23,3.85,2.86,1.93,4.5-1.54,1.32-3.96.32-4.18-1.68-.15-1.36.87-2.7,2.25-2.82ZM8.31,6.84c-1.15.11-1.8,1.41-1.27,2.42s1.98,1.19,2.72.3c.97-1.16.05-2.87-1.46-2.72Z"/><path class="cls-1" d="M11.02,5.25c.85-.14.98,1.07.22,1.18-.8.11-.91-1.06-.22-1.18Z"/></svg>