<?xml version="1.0" encoding="UTF-8"?><svg id="Layer_1" xmlns="http://www.w3.org/2000/svg" viewBox="0 0 17 17"><defs><style>.cls-1{fill:#fff;}.cls-2{fill:#477be4;}</style></defs><rect class="cls-2" width="17" height="17"/><path class="cls-1" d="M8.3,4.88l2.27.04s.09.02.13.02c1.47.07,2.6-.13,2.85,1.63.16,1.16.16,2.68,0,3.84-.22,1.61-1.05,1.57-2.46,1.65-1.57.09-3.21.07-4.77,0-1.06-.05-2.47.11-2.79-1.17-.23-.92-.2-2.2-.17-3.15.05-1.24-.03-2.51,1.48-2.72,1.14-.15,2.32-.1,3.47-.15ZM7.47,10.04l2.67-1.54-2.67-1.54v3.07Z"/></svg>