<?xml version="1.0" encoding="UTF-8"?><svg id="Layer_1" xmlns="http://www.w3.org/2000/svg" viewBox="0 0 17 17"><defs><style>.cls-1{fill:#fff;}.cls-2{fill:#477be4;}</style></defs><rect class="cls-2" width="17" height="17"/><path class="cls-1" d="M6.83,7.16c0-1.07-.14-2.23.72-3.03s1.98-.58,3.03-.61c.13.02.17.08.19.21.03.37.03,1.14,0,1.51-.02.19-.11.22-.29.23-.33.03-.71-.03-1.04,0-.2.02-.38.09-.45.3,0,.02-.04.15-.04.16v1.2h1.57c.12,0,.18.16.19.26.03.38.04,1.24,0,1.61,0,.09-.06.21-.16.21h-1.6v4.27s-.05.1-.07.11c-.05.03-.16.04-.22.05-.41.03-1.22.04-1.61,0-.08,0-.24-.08-.24-.16v-4.24h-1.3s-.15-.05-.17-.07c-.04-.04-.06-.17-.06-.23-.03-.37-.04-1.12,0-1.49.01-.1.06-.28.19-.28h1.35Z"/></svg>