<?xml version="1.0" encoding="UTF-8"?><svg id="Layer_1" xmlns="http://www.w3.org/2000/svg" viewBox="0 0 195.48 28.65"><defs><style>.cls-1{fill:#050f23;}.cls-2{fill:#477be4;}</style></defs><path class="cls-1" d="M129.37,22.39c-1.18,0-2.28-.07-3.31-.22-1.03-.14-1.93-.4-2.7-.77-.77-.37-1.37-.89-1.8-1.55-.43-.67-.65-1.52-.65-2.56v-.11s0-.08.02-.11h3.4c-.01.06-.03.13-.03.22,0,.08-.01.18-.01.28,0,.47.2.85.61,1.15.41.29.99.51,1.75.65s1.64.2,2.65.2c.44,0,.88-.02,1.33-.06s.87-.09,1.28-.17c.41-.08.77-.18,1.1-.32.33-.14.58-.31.77-.51.19-.2.28-.44.28-.71,0-.39-.18-.71-.53-.94-.36-.23-.84-.43-1.44-.58-.61-.15-1.29-.28-2.04-.39-.76-.11-1.54-.22-2.35-.35-.81-.13-1.59-.3-2.35-.52s-1.44-.5-2.04-.85c-.61-.35-1.09-.8-1.44-1.35s-.53-1.23-.53-2.03c0-.73.17-1.37.52-1.93.35-.56.86-1.03,1.54-1.42.68-.39,1.52-.68,2.51-.87.99-.2,2.13-.29,3.41-.29s2.44.11,3.4.32c.97.21,1.77.51,2.4.91.64.39,1.11.87,1.42,1.42.31.55.46,1.17.46,1.85v.36h-3.36v-.3c0-.33-.18-.63-.54-.88-.36-.26-.86-.46-1.47-.61-.62-.15-1.32-.23-2.11-.23-1.09,0-1.97.07-2.65.2-.68.14-1.18.32-1.5.56-.32.23-.48.5-.48.78,0,.35.18.63.53.84.36.21.84.38,1.44.51.6.13,1.29.25,2.04.35.76.11,1.54.23,2.35.36.81.14,1.59.31,2.35.52.76.21,1.44.5,2.04.85.6.36,1.09.8,1.44,1.34.36.54.53,1.2.53,1.99,0,1.21-.35,2.18-1.04,2.92-.7.73-1.66,1.26-2.9,1.59-1.24.33-2.68.49-4.31.49Z"/><path class="cls-1" d="M141.05,22.12V6.53h3.45v15.59h-3.45Z"/><path class="cls-1" d="M148.9,22.12V6.53h3.45v15.59h-3.45Z"/><path class="cls-1" d="M156.75,22.12V6.53h3.24l8.53,8.19c.2.17.43.39.7.68.27.29.55.58.85.88.3.3.55.57.76.82h.18c-.02-.33-.03-.74-.06-1.21-.02-.48-.03-.87-.03-1.17V6.53h3.31v15.59h-3.18l-8.55-8.28c-.41-.39-.84-.83-1.28-1.3s-.81-.86-1.08-1.15h-.16c.01.2.03.54.05,1.03.01.49.02,1.05.02,1.69v8.01h-3.31Z"/><path class="cls-1" d="M178.65,22.12V6.53h12.05c.83,0,1.58.16,2.23.49.66.33,1.18.78,1.55,1.35.38.58.57,1.25.57,2.02,0,.59-.11,1.13-.34,1.61-.23.48-.53.89-.92,1.21-.39.33-.82.57-1.3.74v.09c.57.12,1.09.35,1.54.69s.81.77,1.07,1.29c.26.52.39,1.12.39,1.8,0,.97-.22,1.77-.65,2.41-.43.64-1.01,1.11-1.72,1.42-.72.31-1.52.47-2.42.47h-12.05ZM182.1,12.79h7.49c.42,0,.78-.07,1.07-.22.29-.14.51-.34.66-.6.15-.26.23-.54.23-.84,0-.57-.17-1.01-.5-1.29s-.77-.43-1.32-.43h-7.62v3.38ZM182.1,19.24h7.9c.57,0,1.04-.14,1.41-.43.36-.29.54-.74.54-1.36,0-.36-.08-.68-.23-.96-.15-.28-.38-.5-.68-.65s-.7-.23-1.18-.23h-7.76v3.63Z"/><path class="cls-1" d="M0,21.98V6.4h3.24l8.53,8.19c.2.17.43.39.7.68.27.29.56.58.85.88.3.3.55.57.76.82h.18c-.01-.33-.03-.74-.06-1.21-.02-.48-.03-.86-.03-1.17V6.4h3.31v15.58h-3.18L5.76,13.7c-.41-.39-.84-.83-1.28-1.3s-.8-.86-1.08-1.15h-.16c.01.2.03.54.05,1.03.01.49.02,1.05.02,1.69v8.01H0Z"/><path class="cls-1" d="M21.89,21.98V6.4h12.04c.83,0,1.58.16,2.23.49.66.33,1.18.78,1.55,1.35.38.58.57,1.25.57,2.02,0,.59-.11,1.13-.34,1.61-.23.48-.53.89-.92,1.21-.39.33-.82.57-1.3.74v.09c.57.12,1.09.35,1.54.69s.81.77,1.07,1.29c.26.52.39,1.12.39,1.8,0,.97-.22,1.77-.65,2.4s-1.01,1.11-1.72,1.42c-.72.31-1.52.47-2.42.47h-12.04ZM25.34,12.66h7.49c.42,0,.78-.07,1.07-.22.29-.14.51-.34.66-.6s.23-.54.23-.84c0-.57-.17-1.01-.5-1.29s-.77-.43-1.32-.43h-7.62v3.38ZM25.34,19.1h7.89c.57,0,1.04-.14,1.41-.43.36-.29.54-.74.54-1.36,0-.36-.08-.68-.23-.96-.15-.28-.38-.49-.68-.65s-.7-.23-1.18-.23h-7.76v3.63Z"/><path class="cls-1" d="M42.19,21.98V6.4h3.24l8.53,8.19c.2.17.43.39.7.68.27.29.56.58.85.88.29.3.55.57.76.82h.18c-.01-.33-.03-.74-.06-1.21-.02-.48-.03-.86-.03-1.17V6.4h3.31v15.58h-3.18l-8.55-8.28c-.41-.39-.84-.83-1.28-1.3s-.81-.86-1.08-1.15h-.16c.01.2.03.54.05,1.03.01.49.02,1.05.02,1.69v8.01h-3.31Z"/><path class="cls-1" d="M72.58,22.25c-1.95,0-3.56-.3-4.84-.91-1.28-.6-2.23-1.46-2.86-2.57-.63-1.11-.94-2.42-.94-3.94V6.4h3.45v8.28c0,1.5.45,2.65,1.35,3.47.9.82,2.18,1.22,3.84,1.22s2.95-.41,3.84-1.22c.9-.82,1.35-1.97,1.35-3.47V6.4h3.45v8.44c0,1.51-.31,2.82-.94,3.94-.63,1.11-1.58,1.97-2.85,2.57s-2.89.91-4.85.91Z"/><path class="cls-2" d="M88.82,28.65V4.32s12.24,0,12.24,0l-1.56,3.12c-.37.73-1.11,1.19-1.93,1.19h-4.02v15.69h7.51s-1.56,3.12-1.56,3.12c-.37.73-1.11,1.19-1.93,1.19h-8.74Z"/><path class="cls-2" d="M113.31,0v24.33s-12.24,0-12.24,0l1.56-3.12c.37-.73,1.11-1.19,1.93-1.19h4.02s0-15.69,0-15.69h-7.51s1.56-3.12,1.56-3.12C103,.46,103.75,0,104.57,0h8.74Z"/></svg>